<svg width="24" height="24" viewBox="0 0 24 24" fill="none" xmlns="http://www.w3.org/2000/svg">
<circle opacity="0.4" cx="12" cy="12" r="12" fill="#1B7EC1"/>
<circle cx="12.0007" cy="12.0007" r="8.66667" fill="#1B7EC1"/>
<path fill-rule="evenodd" clip-rule="evenodd" d="M14.0948 6.29883L16.9314 10.4791L11.7634 8.54625L9.21229 10.4232L9.30768 13.9655L11.9435 15.7408L17.0054 14.31L14.1295 17.6397L9.04804 17.0045L8.96145 17.029L8.95881 16.931L6.08915 12.3146L6 12.2545L6.10041 12.1806L8.6945 7.116L8.68973 6.93914L8.86342 7.0041L14.0124 6.35947L14.0948 6.29883ZM8.71855 8.00915L6.87312 11.6121L8.77784 10.2108L8.71855 8.00915ZM9.19824 9.90145L11.2839 8.36693L9.13527 7.56334L9.19824 9.90145ZM11.6962 8.06357L9.72865 7.3277L13.305 6.87996L11.6962 8.06357ZM12.1757 8.24289L15.8213 9.60635L13.9902 6.90789L12.1757 8.24289ZM8.79189 10.7325L6.74422 12.239L8.87104 13.6715L8.79189 10.7325ZM8.88521 14.1977L6.9572 12.8992L8.93596 16.0824L8.88521 14.1977ZM10.1075 16.7051L13.1777 17.0888L11.8688 16.2072L10.1075 16.7051ZM12.4092 16.0545L14.0042 17.1289L15.7435 15.112L12.4092 16.0545ZM9.37504 16.4667L11.4031 15.8935L9.32186 14.4918L9.37504 16.4667Z" fill="white"/>
<ellipse cx="8.95532" cy="7.24438" rx="0.595943" ry="0.595943" fill="white"/>
<ellipse cx="6.6604" cy="12.2913" rx="0.595943" ry="0.595943" fill="white"/>
<ellipse cx="16.4944" cy="14.6409" rx="0.595943" ry="0.595943" fill="white"/>
<ellipse cx="14.0823" cy="17.4045" rx="0.595943" ry="0.595943" fill="white"/>
<ellipse cx="16.7199" cy="10.1174" rx="0.641785" ry="0.595943" fill="white"/>
<ellipse cx="14.0686" cy="6.59594" rx="0.595943" ry="0.595943" fill="white"/>
<ellipse cx="9.34204" cy="16.7268" rx="0.595943" ry="0.595943" fill="white"/>
</svg>
